<?xml version="1.0" encoding="UTF-8"?>
<svg width="600" height="400" xmlns="http://www.w3.org/2000/svg">
  <defs>
    <!-- 그라데이션 정의 -->
    <linearGradient id="buttonGradient" x1="0%" y1="0%" x2="0%" y2="100%">
      <stop offset="0%" style="stop-color:#5CBB5C;stop-opacity:1" />
      <stop offset="100%" style="stop-color:#4CAF50;stop-opacity:1" />
    </linearGradient>
    
    <linearGradient id="inputGradient" x1="0%" y1="0%" x2="0%" y2="100%">
      <stop offset="0%" style="stop-color:#ffffff;stop-opacity:1" />
      <stop offset="100%" style="stop-color:#f9f9f9;stop-opacity:1" />
    </linearGradient>
    
    <filter id="shadow" x="-20%" y="-20%" width="140%" height="140%">
      <feDropShadow dx="2" dy="2" stdDeviation="3" flood-color="#00000030"/>
    </filter>
  </defs>

  <!-- 배경 -->
  <rect width="600" height="400" fill="#f5f5f5" stroke="#ddd" stroke-width="1"/>
  
  <!-- 제목 -->
  <text x="300" y="30" text-anchor="middle" font-family="Arial, sans-serif" font-size="18" font-weight="bold" fill="#1976d2">
    JOB 관리 그룹 UI 레이아웃
  </text>
  
  <!-- 메인 그룹박스 -->
  <g transform="translate(50, 60)">
    <!-- 그룹박스 외곽선 -->
    <rect x="0" y="10" width="500" height="280" fill="white" stroke="#cccccc" stroke-width="2" rx="5" ry="5" filter="url(#shadow)"/>
    
    <!-- 그룹박스 제목 배경 -->
    <rect x="10" y="0" width="80" height="20" fill="white" stroke="none"/>
    
    <!-- 그룹박스 제목 -->
    <text x="50" y="15" text-anchor="middle" font-family="Arial, sans-serif" font-size="14" font-weight="bold" fill="#333">
      JOB 관리
    </text>
    
    <!-- 첫 번째 행 -->
    <g transform="translate(20, 40)">
      <!-- 실행 1 버튼 -->
      <rect x="0" y="0" width="100" height="30" fill="url(#buttonGradient)" stroke="#45a049" stroke-width="1" rx="3" ry="3"/>
      <text x="50" y="20" text-anchor="middle" font-family="Arial, sans-serif" font-size="12" font-weight="bold" fill="white">
        실행 1
      </text>
      
      <!-- 명령어 1 입력필드 -->
      <rect x="120" y="0" width="340" height="30" fill="url(#inputGradient)" stroke="#ddd" stroke-width="1" rx="3" ry="3"/>
      <text x="130" y="20" font-family="Consolas, monospace" font-size="11" fill="#999">
        In-Sight Native Command 입력 (예: SW8)
      </text>
    </g>
    
    <!-- 두 번째 행 -->
    <g transform="translate(20, 90)">
      <!-- 실행 2 버튼 -->
      <rect x="0" y="0" width="100" height="30" fill="url(#buttonGradient)" stroke="#45a049" stroke-width="1" rx="3" ry="3"/>
      <text x="50" y="20" text-anchor="middle" font-family="Arial, sans-serif" font-size="12" font-weight="bold" fill="white">
        실행 2
      </text>
      
      <!-- 명령어 2 입력필드 -->
      <rect x="120" y="0" width="340" height="30" fill="url(#inputGradient)" stroke="#ddd" stroke-width="1" rx="3" ry="3"/>
      <text x="130" y="20" font-family="Consolas, monospace" font-size="11" fill="#999">
        In-Sight Native Command 입력 (예: GetImage)
      </text>
    </g>
    
    <!-- 레이아웃 설명 영역 -->
    <g transform="translate(20, 150)">
      <rect x="0" y="0" width="460" height="120" fill="#e3f2fd" stroke="#2196f3" stroke-width="1" rx="5" ry="5"/>
      
      <!-- 설명 제목 -->
      <text x="230" y="20" text-anchor="middle" font-family="Arial, sans-serif" font-size="12" font-weight="bold" fill="#1976d2">
        UI 구성 요소 명세
      </text>
      
      <!-- 설명 내용 -->
      <text x="10" y="40" font-family="Arial, sans-serif" font-size="10" fill="#333">
        • QGroupBox: "JOB 관리" (500×280px)
      </text>
      <text x="10" y="55" font-family="Arial, sans-serif" font-size="10" fill="#333">
        • QPushButton: "실행 1", "실행 2" (100×30px, 녹색 배경)
      </text>
      <text x="10" y="70" font-family="Arial, sans-serif" font-size="10" fill="#333">
        • QLineEdit: 명령어 입력 필드 (340×30px, 최대 255자)
      </text>
      <text x="10" y="85" font-family="Arial, sans-serif" font-size="10" fill="#333">
        • 레이아웃: QVBoxLayout > 2×QHBoxLayout (버튼+텍스트박스)
      </text>
      <text x="10" y="100" font-family="Arial, sans-serif" font-size="10" fill="#333">
        • 기능: 버튼 클릭 또는 Enter 키로 Telnet 명령 전송
      </text>
    </g>
  </g>
  
  <!-- 측정 선 및 치수 -->
  <g stroke="#ff5722" stroke-width="1" fill="#ff5722" font-family="Arial, sans-serif" font-size="9">
    <!-- 버튼 너비 측정 -->
    <line x1="70" y1="45" x2="70" y2="95" stroke-dasharray="2,2"/>
    <line x1="170" y1="45" x2="170" y2="95" stroke-dasharray="2,2"/>
    <line x1="70" y1="50" x2="170" y2="50"/>
    <text x="120" y="47" text-anchor="middle">100px</text>
    
    <!-- 입력필드 너비 측정 -->
    <line x1="190" y1="130" x2="190" y2="155" stroke-dasharray="2,2"/>
    <line x1="530" y1="130" x2="530" y2="155" stroke-dasharray="2,2"/>
    <line x1="190" y1="145" x2="530" y2="145"/>
    <text x="360" y="142" text-anchor="middle">340px</text>
    
    <!-- 높이 측정 -->
    <line x1="35" y1="100" x2="35" y2="130" stroke-dasharray="2,2"/>
    <line x1="30" y1="100" x2="40" y2="100"/>
    <line x1="30" y1="130" x2="40" y2="130"/>
    <text x="25" y="118" text-anchor="middle" transform="rotate(-90, 25, 118)">30px</text>
  </g>
  
  <!-- 범례 -->
  <g transform="translate(50, 360)">
    <text x="0" y="0" font-family="Arial, sans-serif" font-size="10" font-weight="bold" fill="#333">
      범례:
    </text>
    <rect x="40" y="-8" width="15" height="10" fill="url(#buttonGradient)" stroke="#45a049" stroke-width="1"/>
    <text x="60" y="0" font-family="Arial, sans-serif" font-size="9" fill="#333">
      QPushButton
    </text>
    <rect x="140" y="-8" width="15" height="10" fill="url(#inputGradient)" stroke="#ddd" stroke-width="1"/>
    <text x="160" y="0" font-family="Arial, sans-serif" font-size="9" fill="#333">
      QLineEdit
    </text>
    <rect x="220" y="-8" width="15" height="10" fill="white" stroke="#cccccc" stroke-width="1"/>
    <text x="240" y="0" font-family="Arial, sans-serif" font-size="9" fill="#333">
      QGroupBox
    </text>
  </g>
</svg> 